<?xml version="1.0" encoding="UTF-8"?><svg xmlns="http://www.w3.org/2000/svg" viewBox="0 0 608 608"><defs><style>.d{fill:#fff;}.e{fill:#2e3440;}</style></defs><g id="a"/><g id="b"><g id="c"><g><g><g><path class="e" d="M93.07,330.89V129.07h58.09c45.7,0,69.85,17.38,69.85,50.25,0,20.55-11.38,36.43-30.75,43.4,27.45,5.97,41.91,22.57,41.91,48.28,0,19.51-7.21,34.7-21.43,45.15-13.13,9.65-32.17,14.75-55.05,14.75h-62.61Zm59-25.11c34.57,0,51.38-11.77,51.38-36,0-13.9-5.33-32.38-51.38-32.38h-29.96v68.38h29.96Zm-5.13-93.48c31.78,0,45.34-9.23,45.34-30.87,0-19.1-13.2-27.25-44.14-27.25h-26.04v58.12h24.84Z"/><path class="d" d="M151.16,131.07c40.41,0,67.85,13.57,67.85,48.25,0,19.6-11.16,37.09-34.68,43.12v1.21c28.95,4.52,45.84,20.2,45.84,47.34,0,38.9-30.16,57.9-74.48,57.9h-60.61V131.07h56.09m-31.06,83.23h26.84c33.77,0,47.35-10.86,47.35-32.87s-15.68-29.25-46.14-29.25h-28.04v62.12m0,93.48h31.97c33.77,0,53.38-11.16,53.38-38,0-24.43-18.7-34.38-53.38-34.38h-31.97v72.37m31.06-180.71h-60.09v205.82h64.61c23.31,0,42.76-5.23,56.23-15.14,14.56-10.7,22.25-26.87,22.25-46.76,0-14.39-4.45-26.16-13.23-34.98-6.16-6.19-14.35-10.8-24.44-13.77,6.97-3.39,12.81-8.08,17.18-13.87,6.1-8.07,9.33-18.12,9.33-29.06,0-23.84-12.47-52.25-71.85-52.25h0Zm-27.06,29.11h24.04c15.07,0,25.67,1.97,32.43,6.03,6.62,3.97,9.71,10.08,9.71,19.22,0,10.05-2.97,16.87-9.34,21.44-6.96,5-18.09,7.43-34.01,7.43h-22.84v-54.12h0Zm0,83.23h27.97c17.16,0,29.46,2.43,37.6,7.44,7.93,4.87,11.78,12.38,11.78,22.94,0,11.77-4.01,20.19-12.26,25.75-8.13,5.48-20.62,8.25-37.12,8.25h-27.97v-64.37h0Z"/></g><g><path class="e" d="M339.97,374.48c-14.4,0-40.01-4.08-53.46-15.2-13.45,11.13-39.05,15.2-53.46,15.2h-2v-17.7h2c7.82,0,20.35-1.62,30.74-5.24,10.16-3.54,13.85-7.44,13.85-9.2v-2h.07V119.29l-.03-1.66c0-1.76-3.69-5.65-13.85-9.2-10.38-3.62-22.92-5.24-30.74-5.24h-2v-17.7h2c14.47,0,40.16,4.1,53.58,15.3,13.49-11.05,39-15.1,53.32-15.1h2v17.7h-2c-7.82,0-20.35,1.62-30.74,5.24-10.16,3.54-13.85,7.44-13.85,9.2v224.69c.27,2.13,4.66,5.81,13.82,9,10.38,3.62,22.92,5.24,30.74,5.24h2v17.7h-2Z"/><path class="d" d="M233.1,87.49c14.18,0,41.05,4.28,53.56,15.96,12.61-11.52,39.24-15.75,53.34-15.75v13.7c-7.99,0-20.79,1.66-31.4,5.36-9.37,3.27-15.19,7.52-15.19,11.09v224.7h0c.21,3.53,5.97,7.68,15.17,10.88,10.6,3.7,23.41,5.36,31.4,5.36v13.7c-14.14,0-40.9-4.25-53.46-15.86-12.56,11.6-39.32,15.86-53.46,15.86v-13.7c7.99,0,20.79-1.66,31.4-5.36,9.37-3.27,15.19-7.52,15.19-11.09h.07V117.83c0-.07,0-.14,0-.2h-.03c0-3.57-5.82-7.82-15.19-11.09-10.6-3.7-23.41-5.36-31.4-5.36v-13.7m0-4h-4v21.7h4c7.65,0,19.92,1.59,30.08,5.13,9.57,3.34,12.27,6.61,12.51,7.38v3.93h.03v216.7l-.07,3.93c-.23,.76-2.92,4.04-12.51,7.38-10.16,3.55-22.43,5.13-30.08,5.13h-4v21.7h4c14.25,0,39.3-3.95,53.46-14.66,14.15,10.7,39.2,14.66,53.46,14.66h4v-21.7h-4c-7.65,0-19.92-1.59-30.08-5.13-9.42-3.28-12.17-6.51-12.48-7.34V117.9c.24-.77,2.93-4.04,12.5-7.38,10.16-3.55,22.43-5.13,30.08-5.13h4v-21.7h-4c-14.18,0-39.13,3.93-53.31,14.55-14.13-10.78-39.26-14.76-53.59-14.76h0Z"/></g></g><g><path class="e" d="M573.85,4H34.15c-16.65,0-30.15,13.5-30.15,30.15V573.85c0,16.65,13.5,30.15,30.15,30.15H193.88v-20H34.22c-5.65,0-10.22-4.58-10.22-10.22V34.22c0-5.65,4.58-10.22,10.22-10.22H573.78c5.65,0,10.22,4.58,10.22,10.22V573.78c0,5.65-4.58,10.22-10.22,10.22H253.88v20h319.98c16.65,0,30.15-13.5,30.15-30.15V34.15c0-16.65-13.5-30.15-30.15-30.15Z"/><path class="d" d="M573.85,4c16.65,0,30.15,13.5,30.15,30.15V573.85c0,16.65-13.5,30.15-30.15,30.15H253.88v-20h319.9c5.65,0,10.22-4.58,10.22-10.22V34.22c0-5.65-4.58-10.22-10.22-10.22H34.22c-5.65,0-10.22,4.58-10.22,10.22V573.78c0,5.65,4.58,10.22,10.22,10.22H193.88v20H34.15c-16.65,0-30.15-13.5-30.15-30.15V34.15c0-16.65,13.5-30.15,30.15-30.15H573.85m0-4H34.15C15.32,0,0,15.32,0,34.15V573.85c0,18.83,15.32,34.15,34.15,34.15H197.88v-28H34.22c-3.43,0-6.22-2.79-6.22-6.22V34.22c0-3.43,2.79-6.22,6.22-6.22H573.78c3.43,0,6.22,2.79,6.22,6.22V573.78c0,3.43-2.79,6.22-6.22,6.22H249.88v28h323.98c18.83,0,34.15-15.32,34.15-34.15V34.15c0-18.83-15.32-34.15-34.15-34.15h0Z"/></g></g></g></g></svg>