<?xml version="1.0" encoding="UTF-8"?><svg xmlns="http://www.w3.org/2000/svg" viewBox="0 0 768 768"><defs><style>.d{fill:#facc15;}.e{fill:#2e3440;}</style></defs><g id="a"/><g id="b"><g id="c"><rect class="d" width="768" height="768"/><g><g><path class="e" d="M140.33,582.24V185.76h108.09c42.65,0,75.59,7.33,97.88,21.8,23.53,15.26,34.96,38.09,34.96,69.78,0,19-5.5,36.31-15.91,50.08-11.4,15.07-28.08,25.51-49.58,31.03l-7.52,1.93v18.86l8.46,1.32c28.72,4.49,50.77,14.3,65.56,29.16,14.92,14.99,22.48,35.39,22.48,60.64,0,36.3-13.23,64.42-39.33,83.6-12.57,9.24-28.1,16.33-46.16,21.09-18.12,4.78-38.75,7.2-61.33,7.2h-117.61Zm32.7-24.44h77.3c39.02,0,67.94-6.71,88.44-20.51,22.52-15.17,33.94-38.54,33.94-69.48,0-28.76-11.29-50.29-33.57-63.99-20.11-12.37-49.16-18.39-88.8-18.39h-77.3v172.37Zm0-196.81h66.5c37.5,0,64.43-6.25,82.33-19.1,18.4-13.21,27.34-32.87,27.34-60.11,0-64.16-61.14-71.58-107.14-71.58h-69.04v150.79Z"/><path class="e" d="M248.41,195.76c40.69,0,71.79,6.79,92.44,20.19,20.46,13.27,30.41,33.35,30.41,61.39,0,16.8-4.8,32.03-13.89,44.04-4.04,5.34-8.86,10.02-14.45,14.04,10.82-13.96,16.28-31.91,16.28-53.64,0-14.38-2.83-27.11-8.41-37.86-5.76-11.08-14.44-20.16-25.82-26.99-19.03-11.42-45.38-16.74-82.9-16.74h-79.04v170.79h76.5c23.15,0,42.62-2.34,58.73-7.09v15.2c-14.06-2.45-29.99-3.67-47.93-3.67h-87.3v192.37h87.3c41.07,0,71.83-7.27,94.03-22.22,12.62-8.5,22.29-19.48,28.75-32.63,6.37-12.99,9.6-28.18,9.6-45.15,0-15.96-3.23-30.2-9.59-42.31-4.83-9.19-11.46-17.19-19.79-23.89,8.64,4.15,15.94,9.21,21.86,15.15,13.17,13.23,19.57,30.76,19.57,53.59,0,32.94-11.86,58.35-35.25,75.55-23.46,17.24-58.58,26.35-101.56,26.35h-107.61V195.76h98.09m0-20h-118.09v416.48h127.61c93.33,0,156.82-40,156.82-121.9,0-57.14-35.55-90.15-96.5-99.68v-2.54c49.52-12.7,73.01-49.52,73.01-90.79,0-73.01-57.77-101.58-142.85-101.58h0Zm-65.39,175.23V220.2h59.04c64.12,0,97.14,16.51,97.14,61.58s-28.57,69.2-99.68,69.2h-56.5Zm0,196.81v-152.37h67.3c73.01,0,112.37,20.95,112.37,72.38,0,56.51-41.27,80-112.37,80h-67.3Z"/></g><path class="e" d="M420.92,84v28.85c16.81,0,43.78,3.49,66.1,11.27,19.72,6.88,31.97,15.82,31.97,23.34h.07c0,.14-.01,.28-.01,.43v472.65h-.14c0,7.52-12.25,16.46-31.97,23.34-22.33,7.79-49.29,11.28-66.1,11.28v28.85c29.77,0,86.11-8.96,112.54-33.39,26.44,24.43,82.77,33.39,112.54,33.39v-28.85c-16.81,0-43.78-3.49-66.1-11.28-19.35-6.75-31.48-15.48-31.93-22.91h.01V147.89c0-7.52,12.25-16.46,31.97-23.34,22.33-7.79,49.29-11.27,66.1-11.27v-28.85c-29.68,0-85.75,8.91-112.29,33.16-26.34-24.58-82.91-33.59-112.77-33.59h0Z"/></g></g></g></svg>